<?xml version="1.0"?>
<svg xmlns="http://www.w3.org/2000/svg" id="Layer_1" data-name="Layer 1" viewBox="0 0 512 512" width="512px" height="512px" class=""><g><title>Documents</title><path d="M422.81,112.37V481.63H89.19V30.37H344v82ZM255.77,274.36V191.14H241.6V171.13c0-21.14-16.82-38.42-37.74-38.42h-.33a38.2,38.2,0,0,0-38.07,38.42v20.01H151.3v83.22Z" style="fill:#FFFFFF" data-original="#00ACEA" class="" data-old_color="#00ACEA"/><polygon points="344 30.37 422.81 112.37 344 112.37 344 30.37" style="fill:#C9D4FF" data-original="#FEDB41" class="active-path" data-old_color="#FEDB41"/><polygon points="255.77 191.14 255.77 274.36 151.3 274.36 151.3 191.14 165.46 191.14 241.6 191.14 255.77 191.14" style="fill:#FEDB41" data-original="#00EFD1" class="" data-old_color="#00EFD1"/><path d="M241.6,189.37v1.77H165.46V171.13a38.2,38.2,0,0,1,38.07-38.42h.33c20.92,0,37.74,17.28,37.74,38.42Z" style="fill:#FFFFFF" data-original="#00ACEA" class="" data-old_color="#00ACEA"/><path d="M89.19,490H422.81a8.488,8.488,0,0,0,8.19-8.37V112.37a8.093,8.093,0,0,0-2.327-5.543L349.815,24.642A8.29,8.29,0,0,0,344,22H89.19A8.488,8.488,0,0,0,81,30.37V481.63A8.488,8.488,0,0,0,89.19,490ZM352,50.239,404.025,104H352ZM97,38H336v74.37a7.692,7.692,0,0,0,8,7.63h71V474H97Z" style="fill:#083863" data-original="#083863" class="" data-old_color="#083863"/><path d="M361.67,400H144.23a8,8,0,0,0,0,16H361.67a8,8,0,1,0,0-16Z" style="fill:#083863" data-original="#083863" class="" data-old_color="#083863"/><path d="M144.23,363H270.2a8,8,0,1,0,0-16H144.23a8,8,0,0,0,0,16Z" style="fill:#083863" data-original="#083863" class="" data-old_color="#083863"/><path d="M151.3,282H255.77c4.418,0,8.23-3.222,8.23-7.64V191.14a8.32,8.32,0,0,0-8.23-8.14H250V171.13A46.226,46.226,0,0,0,203.86,125h-.33c-25.4,0-46.53,20.534-46.53,46.13V183h-5.7a8.382,8.382,0,0,0-8.3,8.14v83.22C143,278.778,146.882,282,151.3,282ZM248,266H159V199h89Zm-75-94.87c0-16.774,13.949-30.13,30.53-30.13h.33A30.207,30.207,0,0,1,234,171.13V183H173Z" style="fill:#083863" data-original="#083863" class="" data-old_color="#083863"/><path d="M203,252.26a8,8,0,0,0,8-8V231.87a8,8,0,0,0-16,0v12.39A8,8,0,0,0,203,252.26Z" style="fill:#083863" data-original="#083863" class="" data-old_color="#083863"/><script xmlns=""/></g> </svg>
